<?xml version="1.0" standalone="no"?>
<!DOCTYPE svg PUBLIC "-//W3C//DTD SVG 20010904//EN"
 "http://www.w3.org/TR/2001/REC-SVG-20010904/DTD/svg10.dtd">
<svg version="1.0" xmlns="http://www.w3.org/2000/svg"
 width="480.000000pt" height="507.000000pt" viewBox="0 0 480.000000 507.000000"
 preserveAspectRatio="xMidYMid meet">

<g transform="translate(0.000000,507.000000) scale(0.100000,-0.100000)"
fill="#000000" stroke="none">
<path d="M134 5038 c-61 -41 -109 -112 -123 -181 -8 -37 -10 -731 -9 -2352 l3
-2300 27 -55 c32 -66 50 -87 103 -123 l40 -27 2231 0 2232 0 47 33 c27 17 62
52 79 75 l31 44 3 2372 2 2372 -32 54 c-20 32 -52 67 -82 87 l-48 33 -2228 0
-2228 0 -48 -32z m4434 -121 c17 -10 44 -36 60 -59 l27 -42 3 -2260 c2 -1700
0 -2272 -9 -2304 -13 -46 -62 -97 -107 -109 -15 -5 -981 -8 -2148 -8 l-2120 0
-43 28 c-78 51 -71 -162 -69 2381 l3 2285 21 27 c28 39 65 65 105 74 19 5 981
7 2139 7 1997 -2 2107 -3 2138 -20z"/>
<path d="M1956 4323 c-5 -26 -60 -422 -102 -735 -16 -120 -15 -141 1 -195 12
-37 -12 -27 -40 16 -25 37 -26 42 -15 101 6 34 9 64 6 67 -7 8 -195 -90 -291
-152 -171 -111 -340 -286 -405 -420 -21 -44 -31 -82 -35 -140 -14 -166 -50
-258 -165 -422 -44 -62 -80 -114 -80 -116 0 -3 17 -7 37 -10 22 -4 45 -16 54
-28 16 -21 19 -22 63 -9 40 11 52 10 94 -5 55 -21 70 -30 122 -78 38 -36 41
-37 157 -48 124 -11 244 -35 353 -71 82 -26 252 -96 264 -108 25 -25 -12 -18
-106 18 -168 66 -455 132 -573 132 l-26 0 23 -30 c19 -24 47 -39 129 -66 177
-60 445 -200 523 -275 40 -37 5 -30 -61 13 -99 64 -184 110 -303 161 -96 42
-391 147 -411 147 -5 0 -9 -7 -9 -15 0 -8 5 -15 10 -15 6 0 42 -12 80 -27 61
-24 70 -30 70 -53 0 -18 9 -31 31 -44 77 -46 289 -239 289 -264 0 -5 19 -17
41 -28 56 -25 120 -89 147 -147 38 -81 44 -137 37 -362 -6 -197 4 -393 23
-445 7 -20 -4 -29 483 365 407 330 720 531 1069 686 52 23 97 43 98 45 2 1
-28 42 -67 91 -47 58 -92 129 -131 208 -73 149 -78 165 -129 405 -79 369 -138
536 -254 714 -59 89 -176 220 -240 267 -20 15 -72 76 -114 136 -148 211 -198
279 -278 378 -90 112 -342 385 -355 385 -5 0 -11 -12 -14 -27z m653 -1348 c33
-16 41 -33 41 -80 0 -52 -58 -96 -109 -82 -14 3 -54 -30 -152 -129 l-134 -134
-102 0 c-96 0 -103 1 -103 20 0 18 7 20 88 20 l87 0 128 128 128 128 -7 42
c-6 37 -3 44 24 72 34 33 67 38 111 15z m-1038 -106 c57 -11 107 -24 112 -28
4 -4 -8 -25 -26 -47 -18 -21 -45 -58 -61 -82 -86 -127 -218 -201 -313 -176
-20 6 -21 8 -9 26 11 16 11 28 -2 80 -15 60 -11 116 13 171 5 12 3 17 -9 17
-33 0 -15 19 37 39 67 26 130 26 258 0z m1190 -209 c27 -15 52 -68 45 -96 -17
-65 -90 -85 -144 -39 -20 17 -42 25 -66 25 -32 0 -44 -9 -107 -75 l-72 -75
-223 0 c-217 0 -224 1 -224 20 0 19 7 20 207 20 l207 0 82 80 c78 77 83 80
128 80 25 0 46 5 46 10 0 6 11 22 25 35 25 26 63 32 96 15z m80 -303 c70 -53
37 -157 -50 -157 -31 0 -44 6 -64 30 l-26 30 -265 0 -266 0 0 25 0 25 266 0
266 0 28 30 c30 32 81 40 111 17z"/>
<path d="M1373 2842 c-7 -4 -17 -28 -24 -54 -10 -37 -10 -57 0 -102 7 -31 16
-58 21 -61 14 -9 30 65 30 142 0 72 -6 88 -27 75z"/>
<path d="M1324 4073 c10 -35 88 -380 112 -497 13 -66 25 -121 27 -122 1 -1 42
22 91 51 49 30 127 71 173 91 83 37 83 37 83 75 0 36 -4 41 -156 161 -85 67
-193 153 -240 191 -46 37 -86 67 -90 67 -3 0 -3 -8 0 -17z"/>
<path d="M778 2283 c-48 -7 -44 -53 15 -168 14 -28 33 -76 43 -108 12 -38 32
-73 57 -100 l38 -42 -6 30 c-4 17 -13 37 -20 45 -28 31 -55 112 -55 164 0 46
4 56 35 86 39 38 44 59 17 83 -18 16 -60 20 -124 10z"/>
<path d="M1150 1981 c0 -5 32 -27 70 -47 39 -21 69 -43 67 -49 -2 -5 -26 -23
-53 -38 -43 -25 -57 -27 -119 -24 -39 2 -84 11 -102 21 -32 16 -33 16 -33 -2
0 -10 12 -43 28 -73 52 -103 164 -149 330 -134 48 4 128 10 177 14 l90 6 -65
64 c-36 34 -101 90 -145 123 -44 33 -84 67 -88 74 -10 17 -120 74 -142 74 -8
0 -15 -4 -15 -9z"/>
</g>
</svg>
